<?xml version="1.0" encoding="UTF-8" standalone="no"?>
<svg
   xmlns:dc="http://purl.org/dc/elements/1.1/"
   xmlns:cc="http://creativecommons.org/ns#"
   xmlns:rdf="http://www.w3.org/1999/02/22-rdf-syntax-ns#"
   xmlns:svg="http://www.w3.org/2000/svg"
   xmlns="http://www.w3.org/2000/svg"
   xmlns:sodipodi="http://sodipodi.sourceforge.net/DTD/sodipodi-0.dtd"
   xmlns:inkscape="http://www.inkscape.org/namespaces/inkscape"
   enable-background="new 0 0 291.3 72.3"
   viewBox="0 0 908.26612 137.08098"
   version="1.1"
   id="svg94"
   sodipodi:docname="brand.svg"
   width="908.26611"
   height="137.08098"
   inkscape:version="0.92.4 (5da689c313, 2019-01-14)"
   inkscape:export-filename="C:\Users\charles.pichery\projects\site-web-campement\toulouse.octo.com\assets\images\brand.png"
   inkscape:export-xdpi="96"
   inkscape:export-ydpi="96">
  <metadata
     id="metadata100">
    <rdf:RDF>
      <cc:Work
         rdf:about="">
        <dc:format>image/svg+xml</dc:format>
        <dc:type
           rdf:resource="http://purl.org/dc/dcmitype/StillImage" />
      </cc:Work>
    </rdf:RDF>
  </metadata>
  <defs
     id="defs98" />
  <sodipodi:namedview
     pagecolor="#ffffff"
     bordercolor="#666666"
     borderopacity="1"
     objecttolerance="10"
     gridtolerance="10"
     guidetolerance="10"
     inkscape:pageopacity="0"
     inkscape:pageshadow="2"
     inkscape:window-width="3840"
     inkscape:window-height="2004"
     id="namedview96"
     showgrid="false"
     showguides="false"
     inkscape:zoom="1.1345692"
     inkscape:cx="499.78791"
     inkscape:cy="183.35729"
     inkscape:window-x="-16"
     inkscape:window-y="-16"
     inkscape:window-maximized="1"
     inkscape:current-layer="svg94" />
  <path
     inkscape:connector-curvature="0"
     id="path123"
     d="M 55.831447,132.00832 C 38.334982,129.20092 20.454728,117.9888 11.147202,103.98828 6.8048216,97.456402 2.6113326,87.474242 0.97739058,79.780078 -0.75435722,71.625372 -0.09647422,55.111202 2.2532116,47.754579 5.8052726,36.633439 12.669576,25.280921 19.964461,18.462867 35.654106,3.798779 58.860673,-2.672038 79.512955,1.858631 c 7.626097,1.672998 19.909011,7.550312 26.937705,12.88956 12.73125,9.671109 22.35943,26.918195 24.71082,44.26481 2.24958,16.5954 -3.16957,34.766011 -14.60094,48.957559 -8.5736,10.64375 -21.012514,18.78009 -34.330038,22.45542 -6.646985,1.8344 -19.88349,2.62779 -26.399055,1.58234 z M 75.611153,103.90809 C 91.680236,99.785732 103.9709,83.525657 103.9709,66.389199 103.9709,47.365117 89.696444,30.873274 70.753015,28.011278 56.532986,25.862893 41.732379,32.61602 33.4378,45.037244 c -4.998326,7.485053 -6.556127,13.302531 -6.216803,23.216137 0.266593,7.788846 0.477812,8.729953 3.191577,14.220907 8.763512,17.731742 26.620554,26.199812 45.198579,21.433802 z M 59.32545,80.279733 c -3.640697,-1.990601 -5.153113,-3.550516 -6.692377,-6.902554 -1.690249,-3.680835 -1.874982,-9.539313 -0.411278,-13.042469 2.292809,-5.487457 9.996242,-9.764913 15.869493,-8.81181 7.842537,1.272663 14.086441,9.1854 13.074426,16.568886 -0.619378,4.518892 -2.387465,7.565234 -6.16107,10.615256 -2.536989,2.050545 -3.691284,2.421142 -8.152651,2.617522 -3.705501,0.163109 -5.86579,-0.136788 -7.526543,-1.044831 z m 13.294008,-3.569758 c 3.35165,-2.280467 4.952381,-5.679962 4.952381,-10.517409 0,-12.977009 -17.376842,-16.262639 -22.674121,-4.287248 -2.059664,4.656184 -1.330325,8.739099 2.27366,12.728276 4.396713,4.866627 10.200653,5.64673 15.44808,2.076381 z M 62.287866,72.983547 c -3.882199,-1.564172 -4.793008,-8.22246 -1.566195,-11.449277 2.696399,-2.696378 7.466936,-2.806879 10.203177,-0.236326 1.545356,1.451787 1.988342,2.624108 1.988342,5.261903 0,5.838929 -4.829695,8.758812 -10.625324,6.4237 z M 208.3842,132.06117 c -21.77311,-3.49765 -39.70862,-16.60388 -49.49378,-36.167158 -4.77954,-9.55565 -6.14811,-15.135762 -6.56979,-26.787257 -0.46366,-12.812014 1.13558,-20.737596 6.34522,-31.445921 6.17041,-12.683161 13.64466,-20.936296 25.16821,-27.791007 17.51084,-10.416194 38.96557,-12.307843 57.56715,-5.075647 4.62727,1.799061 14.62325,7.46576 18.04252,10.228274 l 2.12547,1.717207 -9.69415,9.670862 -9.69414,9.670861 -2.13685,-1.392051 c -14.75815,-9.61418 -31.73004,-9.382032 -45.02988,0.615933 -10.40288,7.820231 -15.72838,18.364975 -15.72838,31.143084 0,30.324622 34.01669,49.23042 58.94032,32.757852 l 3.42468,-2.26344 9.58073,9.557728 c 5.26942,5.25674 9.58073,9.78096 9.58073,10.05381 0,0.86984 -11.86511,8.30759 -16.54219,10.36959 -10.59657,4.6718 -25.50122,6.80547 -35.88587,5.13728 z m 264.39685,-0.45249 c -31.56621,-6.38239 -53.57452,-33.174428 -53.57452,-65.219481 0,-33.818056 24.58486,-61.469487 58.45606,-65.7475 19.91534,-2.515363 40.86314,5.143739 54.97115,20.098979 23.53617,24.949557 24.93327,61.37403 3.36345,87.688862 -5.18347,6.32374 -8.1322,8.91429 -15.95893,14.02042 -13.56672,8.85088 -31.546,12.33537 -47.25721,9.15872 z m 24.24642,-28.39799 c 15.85935,-5.342628 26.22234,-19.894366 26.22234,-36.821491 0,-29.238185 -29.94361,-47.308324 -56.28732,-33.967838 -8.92815,4.521224 -17.56727,16.101008 -19.72245,26.435741 -3.86884,18.552255 7.94033,38.64264 26.13261,44.458248 6.41335,2.05019 17.4026,2.00156 23.65482,-0.10466 z M 330.69209,80.753391 V 29.508187 H 305.84591 280.99977 V 14.755781 0.003374 h 64.0565 64.0565 v 14.752407 14.752406 h -24.84615 -24.84617 v 51.245204 51.245199 h -14.36418 -14.36418 z"
     style="fill:#001d56;stroke-width:0.77644247" />
  <path
     inkscape:connector-curvature="0"
     id="path129-0-9"
     d="m 496.37733,55.984207 c -5.16275,-3.243907 -5.15436,-12.100055 0.015,-15.927087 4.89582,-3.624446 12.82089,-0.937048 14.58325,4.945194 1.12204,3.745015 0.49385,6.349966 -2.27996,9.454397 -2.86062,3.201582 -8.53431,3.905136 -12.31838,1.527496 z M 535.36188,16.951364 C 530.57512,13.186088 530.11015,6.525239 534.3389,2.296482 536.29448,0.340911 537.23481,0 540.67333,0 c 4.5417,0 6.90305,1.272864 8.65833,4.667221 2.3715,4.585951 0.83311,10.120517 -3.52934,12.697489 -3.0767,1.817448 -7.84442,1.628697 -10.44044,-0.413346 z"
     style="fill:#01aeca;stroke-width:0.77644247"
     sodipodi:nodetypes="cccscccssscc" />
  <path
     sodipodi:nodetypes="csssscsscsscscccccsscsccccssscccccccscsscccccsssscccccccsccccccsscsccccccccccccscccccsssccscscccccccccssccccccccscssccccccccccccsscscccccccscscscscccscsscsccscccscsccscccccscsssssssccccccccccc"
     style="fill:#01aeca;stroke-width:0.49907577"
     d="m 599.36615,135.60008 c -4.50541,-2.85724 -7.23292,-8.96277 -6.81378,-15.25257 0.28466,-4.2717 2.35915,-9.60679 9.18236,-23.614998 2.57216,-5.28068 4.67663,-10.06424 4.67663,-10.63013 0,-2.821568 -3.86012,-6.790967 -8.76813,-9.016391 -4.7182,-2.13932 -9.81301,-3.391976 -16.18564,-3.979545 -7.86289,-0.72496 -9.19548,-1.14522 -11.75854,-3.708275 -2.32248,-2.322488 -3.01509,-3.971354 -2.5113,-5.978606 0.42996,-1.713102 2.05728,-2.643072 5.26321,-3.007811 1.49689,-0.170299 7.11151,-1.891082 12.47689,-3.823959 32.89833,-11.851642 48.17237,-16.302789 67.64803,-19.71396 7.373,-1.291381 8.96091,-1.397364 20.71168,-1.382332 12.10945,0.01545 12.95655,0.07891 17.47337,1.308405 9.97385,2.714894 16.37219,6.809671 19.00862,12.165066 1.24902,2.537088 1.5171,3.59665 1.27982,5.058869 -0.42141,2.596558 -2.23304,4.261491 -4.70753,4.326383 -2.99663,0.07854 -3.7286,-0.791645 -3.33256,-3.961782 0.40186,-3.216046 -0.47076,-4.953397 -3.46312,-6.894997 -3.61013,-2.342457 -6.27401,-2.83783 -15.12657,-2.813014 -26.87163,0.07534 -58.21579,7.927887 -89.72813,22.479272 l -3.48518,1.60934 4.12533,1.191001 c 5.58224,1.61159 9.72208,3.786818 12.86607,6.760239 l 2.62371,2.481407 1.26856,-2.164631 c 1.81377,-3.094953 6.65469,-13.376801 7.06177,-14.998868 0.26265,-1.046404 0.6448,-1.36986 1.61834,-1.36986 3.02046,0 8.59881,5.008231 8.59881,7.719972 0,3.557121 -3.0286,10.57559 -10.27413,23.809157 -10.4123,19.017618 -14.17561,27.293228 -14.18856,31.201398 -0.005,1.31939 0.3669,4.5616 0.82503,7.20493 0.45814,2.64334 0.69333,5.16991 0.5227,5.6146 -0.53094,1.38353 -4.25892,1.04886 -6.88776,-0.61831 z m 37.46416,-11.71494 c -6.76015,-1.86741 -10.48175,-7.28097 -10.53445,-15.3241 -0.0149,-2.21753 0.33411,-5.10569 0.81931,-6.78685 1.42937,-4.952308 4.67025,-10.987148 7.51729,-13.997848 2.56524,-2.71265 2.70583,-2.78683 4.75996,-2.51131 2.0708,0.27774 2.18252,0.21586 5.15467,-2.855175 1.67092,-1.726482 4.23462,-3.743932 5.69709,-4.483198 5.16363,-2.610197 11.00961,-2.188349 14.12011,1.018864 1.6517,1.70317 1.69019,1.841026 1.8568,6.660179 0.19693,5.69208 -0.66527,10.60463 -2.8473,16.224148 l -1.45489,3.74668 1.46317,-0.86431 c 2.39089,-1.41234 6.08015,-4.843238 8.29517,-7.714288 3.93268,-5.09747 8.59738,-14.655521 8.59738,-17.616138 0,-2.78747 5.35221,-1.762855 9.02076,1.72692 1.77314,1.686796 1.95892,2.101804 1.95892,4.376868 0,2.23785 -0.82288,4.16853 -7.5051,17.609208 -4.12772,8.30267 -7.38013,15.22071 -7.22739,15.3734 0.81037,0.81039 9.64233,-10.1548 20.43364,-25.369288 2.95568,-4.16708 7.2048,-12.563466 7.25662,-14.339066 0.0335,-1.141146 3.22754,-0.68069 5.53503,0.797863 5.5903,3.582036 5.59245,4.860573 0.0268,16.545003 -4.44001,9.321658 -7.72476,17.193498 -8.27813,19.838268 -0.30762,1.47014 -0.22833,1.62199 0.84666,1.62199 2.3425,0 8.23602,-7.80462 12.54822,-16.61731 9.69954,-19.822461 19.33223,-41.653778 20.42873,-46.299374 0.60069,-2.544704 0.60599,-2.549934 2.32205,-2.272343 2.2352,0.361575 6.51682,3.325679 7.70199,5.331906 0.70899,1.200301 0.85589,2.11351 0.61854,3.845209 -0.47054,3.433126 -4.25712,12.463843 -11.03488,26.316904 -8.42404,17.218288 -11.73206,25.158618 -11.73206,28.161018 0,4.73136 11.92228,-8.9286 17.74898,-20.335858 1.73981,-3.40617 3.83006,-6.65552 5.26334,-8.18215 2.30608,-2.45631 2.44257,-2.5233 4.55161,-2.23423 2.14183,0.29356 2.21973,0.25154 5.21387,-2.811376 1.67184,-1.710183 4.24475,-3.776904 5.71774,-4.592693 2.30223,-1.275044 3.20366,-1.483299 6.42124,-1.483371 4.49413,-8.3e-5 7.15826,1.167776 8.59623,3.768201 0.82925,1.499733 0.92679,2.525392 0.75665,7.960009 -0.1738,5.55069 -0.39178,6.81614 -1.97734,11.47873 -0.98,2.882168 -1.70479,5.322068 -1.6105,5.421998 0.47582,0.50446 4.10995,-2.44304 7.49452,-6.078658 3.06145,-3.28843 4.36926,-5.2318 6.7101,-9.97066 1.59915,-3.23734 3.06325,-6.830693 3.25372,-7.985195 0.61409,-3.724577 1.76936,-4.142435 5.97258,-2.160289 2.80085,1.320833 4.41297,2.863982 5.22172,4.998354 0.88545,2.33671 -0.44303,5.74763 -8.03746,20.636908 -3.84295,7.53431 -6.87579,13.81015 -6.73964,13.94633 0.922,0.92199 5.81628,-4.89947 16.15965,-19.221198 7.80472,-10.80667 8.9681,-12.70954 10.86601,-17.773668 0.93712,-2.500535 1.35375,-3.051431 2.40387,-3.17935 2.33299,-0.284156 6.6083,2.60427 8.11068,5.479608 0.90142,1.7252 0.63639,2.47168 -5.23489,14.74582 -7.63802,15.967468 -9.14329,22.307988 -4.28275,18.040428 3.52804,-3.09764 9.19862,-12.15857 14.32496,-22.889328 2.07779,-4.34916 2.57052,-5.92731 2.89746,-9.28022 0.45311,-4.645846 1.59001,-7.233754 4.62379,-10.524957 3.79061,-4.112339 8.23707,-5.245005 12.35096,-3.146235 3.45903,1.764664 3.32389,4.429569 -0.43423,8.561875 -3.12551,3.436781 -3.57024,4.339176 -3.57024,7.244447 0,1.9195 0.62231,3.69965 3.09305,8.84777 2.62475,5.469018 3.13478,6.980328 3.36877,9.981958 l 0.27577,3.53718 2.37075,-2.99446 c 1.35079,-1.70629 2.50151,-3.7459 2.67451,-4.74123 0.47007,-2.703028 3.40746,-8.432008 5.93804,-11.581438 2.90795,-3.61911 8.76928,-8.346038 12.82355,-10.341747 3.97465,-1.956459 10.13465,-3.255542 13.23351,-2.790827 2.81328,0.421899 4.9149,2.339925 5.40046,4.929138 1.24842,6.654416 -9.56577,21.312684 -19.71421,26.721694 -1.59688,0.85111 -3.25474,1.54747 -3.68431,1.54747 -1.50787,0 -1.67611,5.1119 -0.22576,6.85951 1.01797,1.22664 5.4852,0.74703 8.92714,-0.95846 6.329,-3.13597 17.15656,-15.44098 21.95966,-24.955458 1.54673,-3.06423 2.69018,-3.61282 4.97821,-2.38829 1.47503,0.78937 1.18925,2.07 -1.5831,7.09309 -8.36959,15.165068 -17.46401,24.667588 -26.89705,28.104218 -3.50618,1.27736 -9.66865,1.15289 -12.60713,-0.25463 -3.20521,-1.53535 -6.57637,-5.39198 -7.90987,-9.04893 -0.59233,-1.6246 -1.17167,-2.95382 -1.28733,-2.95382 -0.11576,0 -1.6464,1.43594 -3.40143,3.19097 -4.03717,4.03717 -9.66445,7.8167 -13.37648,8.98428 -2.07282,0.652 -3.9861,0.85441 -6.84761,0.72446 -3.89464,-0.17685 -4.01062,-0.21993 -6.02921,-2.23855 -1.52945,-1.52941 -2.20676,-2.71766 -2.63629,-4.62489 l -0.57815,-2.56669 -3.13379,3.50028 c -4.88155,5.45226 -8.92172,7.33231 -12.30594,5.72641 -3.84493,-1.82455 -7.19438,-7.73418 -6.56866,-11.58974 0.33745,-2.07948 0.5971,-2.30372 -4.4281,3.82532 -3.42547,4.17801 -7.34137,7.69656 -9.23441,8.29734 -2.69248,0.85459 -7.076,-2.58906 -9.0893,-7.14048 -0.78237,-1.76861 -0.94841,-2.95278 -0.75392,-5.37616 l 0.24948,-3.10796 -2.20837,1.40054 c -1.21463,0.77029 -3.48894,1.78854 -5.054,2.26278 -2.13543,0.64704 -3.23705,1.34098 -4.41375,2.78034 -2.35366,2.8791 -6.58174,6.31736 -9.56112,7.77506 -2.02465,0.99056 -3.44853,1.30437 -6.0258,1.32795 -6.48256,0.0594 -11.37111,-3.68826 -13.34513,-10.23049 l -0.85044,-2.81861 -2.47484,2.96189 c -2.66303,3.18694 -8.07719,7.99696 -10.25209,9.10799 -2.23059,1.13949 -4.38721,1.39403 -6.64952,0.78487 -2.50648,-0.67494 -5.32738,-3.39057 -5.75786,-5.54304 -0.43496,-2.17472 -1.09524,-2.22805 -2.74881,-0.22199 -3.68179,4.46659 -8.44766,6.83602 -11.63464,5.78424 -3.69084,-1.2181 -7.55005,-7.35798 -7.10525,-11.30421 0.1346,-1.19405 0.1805,-2.17098 0.10196,-2.17098 -0.0785,0 -1.30381,1.47748 -2.7229,3.28331 -3.69518,4.70202 -8.29603,9.16326 -10.32386,10.01052 -3.32021,1.38728 -7.19294,-1.14687 -9.53764,-6.24099 -1.03316,-2.24466 -1.19199,-3.19205 -0.97925,-5.84186 l 0.25385,-3.16273 -1.81223,1.23857 c -0.99676,0.68121 -3.16359,1.65834 -4.81519,2.17139 -2.58187,0.80204 -3.59651,1.52341 -7.23663,5.14503 -6.15424,6.12301 -11.48131,8.22625 -16.98482,6.70599 z m 8.7585,-7.07122 c 1.9715,-1.13792 4.6098,-3.58661 4.20255,-3.90045 -0.11544,-0.089 -1.53976,-0.79893 -3.16511,-1.57771 -1.62535,-0.7788 -3.80025,-2.17949 -4.83319,-3.11266 -1.71819,-1.55229 -1.9188,-1.61995 -2.35678,-0.79487 -0.86023,1.62035 -2.08218,6.28669 -2.08218,7.95119 0,3.31843 3.81843,3.98362 8.23471,1.4345 z m 111.29393,0.0222 c 2.02107,-1.18898 4.58782,-3.60206 4.20252,-3.95087 -0.11547,-0.10451 -1.4535,-0.77285 -2.97346,-1.48522 -1.51989,-0.71235 -3.69776,-2.09487 -4.83962,-3.07228 -2.3851,-2.04154 -2.42455,-2.01353 -3.82246,2.71309 -1.07421,3.63215 -1.0099,5.31587 0.25144,6.57717 0.87068,0.87076 1.41089,0.99594 3.1192,0.72283 1.13629,-0.18167 2.96442,-0.85879 4.06238,-1.50472 z m 77.38865,0.20813 c 2.24108,-1.3851 4.53137,-4.99465 5.27366,-8.31171 0.7488,-3.34613 0.28443,-5.3913 -2.33572,-10.286308 l -1.8177,-3.3959 -3.16343,5.688448 c -1.73981,3.12864 -3.93094,6.99207 -4.86909,8.58537 -1.66012,2.81965 -1.68096,2.92154 -0.78142,3.82111 0.50837,0.50834 0.92423,1.13159 0.92423,1.38501 0,0.25344 0.58148,1.15179 1.29209,1.99632 1.53312,1.82197 3.12363,1.9723 5.47738,0.51766 z m -178.32645,-13.3306 c 3.97072,-8.720108 6.03089,-20.586878 3.57408,-20.586878 -1.96167,0 -7.89614,10.27487 -9.45337,16.36743 -1.20434,4.711668 0.023,8.087288 2.93987,8.087288 0.98538,0 1.46647,-0.633 2.93942,-3.86784 z m 111.54595,-0.49907 c 2.78985,-6.034178 4.11883,-10.635038 4.46526,-15.458908 0.26341,-3.667172 0.19798,-4.142104 -0.61359,-4.453523 -1.10153,-0.422749 -2.88952,1.543403 -5.74061,6.312613 -4.34902,7.27522 -5.80057,14.247788 -3.48005,16.717808 2.16268,2.30217 3.11996,1.74627 5.36899,-3.11799 z m 108.72094,-2.03788 c 3.27335,-2.378098 9.36994,-9.240878 11.11106,-12.507728 1.98743,-3.72879 2.67702,-5.912278 1.99935,-6.331079 -2.72189,-1.682216 -10.24915,6.801429 -14.69963,16.567249 -1.87961,4.124628 -1.57028,4.566798 1.58922,2.271558 z"
     id="path186-6"
     inkscape:connector-curvature="0" />
</svg>
